<svg xmlns="http://www.w3.org/2000/svg" xmlns:xlink="http://www.w3.org/1999/xlink" width="300" zoomAndPan="magnify" viewBox="0 0 224.87999 225" height="300" preserveAspectRatio="xMidYMid meet" version="1.0"><defs><clipPath id="60643ae2c1"><path d="M 28.574219 98.726562 L 190.953125 98.726562 L 190.953125 129.195312 L 28.574219 129.195312 Z M 28.574219 98.726562 " clip-rule="nonzero"/></clipPath><clipPath id="fc18304d71"><path d="M 40.984375 84.6875 L 177.90625 84.6875 L 177.90625 113.960938 L 40.984375 113.960938 Z M 40.984375 84.6875 " clip-rule="nonzero"/></clipPath><clipPath id="b4db702667"><path d="M 52.421875 75.070312 L 167.101562 75.070312 L 167.101562 98.726562 L 52.421875 98.726562 Z M 52.421875 75.070312 " clip-rule="nonzero"/></clipPath><clipPath id="2cb6ef4f1e"><path d="M 61.429688 66.128906 L 158.097656 66.128906 L 158.097656 91.734375 L 61.429688 91.734375 Z M 61.429688 66.128906 " clip-rule="nonzero"/></clipPath><clipPath id="969459df45"><path d="M 68.625 60.28125 L 149.402344 60.28125 L 149.402344 81.089844 L 68.625 81.089844 Z M 68.625 60.28125 " clip-rule="nonzero"/></clipPath><clipPath id="a6e0a62610"><path d="M 73.871094 53.238281 L 143.105469 53.238281 L 143.105469 68.796875 L 73.871094 68.796875 Z M 73.871094 53.238281 " clip-rule="nonzero"/></clipPath><clipPath id="91436da9f8"><path d="M 82.71875 44.121094 L 136.058594 44.121094 L 136.058594 60.28125 L 82.71875 60.28125 Z M 82.71875 44.121094 " clip-rule="nonzero"/></clipPath><clipPath id="6904874411"><path d="M 89.761719 35.878906 L 125.863281 35.878906 L 125.863281 49.488281 L 89.761719 49.488281 Z M 89.761719 35.878906 " clip-rule="nonzero"/></clipPath><clipPath id="e726087dbb"><path d="M 41.300781 112.5 L 178.222656 112.5 L 178.222656 141.769531 L 41.300781 141.769531 Z M 41.300781 112.5 " clip-rule="nonzero"/></clipPath><clipPath id="f02d5ce0f7"><path d="M 52.101562 127.726562 L 166.78125 127.726562 L 166.78125 151.382812 L 52.101562 151.382812 Z M 52.101562 127.726562 " clip-rule="nonzero"/></clipPath><clipPath id="b178af9646"><path d="M 61.105469 134.722656 L 157.773438 134.722656 L 157.773438 160.328125 L 61.105469 160.328125 Z M 61.105469 134.722656 " clip-rule="nonzero"/></clipPath><clipPath id="d73c725254"><path d="M 69.796875 145.363281 L 150.574219 145.363281 L 150.574219 166.171875 L 69.796875 166.171875 Z M 69.796875 145.363281 " clip-rule="nonzero"/></clipPath><clipPath id="0f8719529a"><path d="M 76.101562 157.65625 L 145.335938 157.65625 L 145.335938 173.21875 L 76.101562 173.21875 Z M 76.101562 157.65625 " clip-rule="nonzero"/></clipPath><clipPath id="3f587efe76"><path d="M 83.144531 166.167969 L 136.488281 166.167969 L 136.488281 182.328125 L 83.144531 182.328125 Z M 83.144531 166.167969 " clip-rule="nonzero"/></clipPath><clipPath id="6ba024c2e5"><path d="M 93.339844 176.96875 L 129.441406 176.96875 L 129.441406 190.582031 L 93.339844 190.582031 Z M 93.339844 176.96875 " clip-rule="nonzero"/></clipPath><clipPath id="09d890a7a4"><path d="M 7 11.199219 L 220.527344 11.199219 L 220.527344 213.589844 L 7 213.589844 Z M 7 11.199219 " clip-rule="nonzero"/></clipPath></defs><g clip-path="url(#60643ae2c1)"><path fill="#ffffff" d="M 28.574219 98.726562 L 190.925781 98.726562 L 190.925781 129.195312 L 28.574219 129.195312 Z M 28.574219 98.726562 " fill-opacity="1" fill-rule="nonzero"/></g><g clip-path="url(#fc18304d71)"><path fill="#ffffff" d="M 40.984375 84.6875 L 177.851562 84.6875 L 177.851562 113.960938 L 40.984375 113.960938 Z M 40.984375 84.6875 " fill-opacity="1" fill-rule="nonzero"/></g><g clip-path="url(#b4db702667)"><path fill="#ffffff" d="M 52.421875 75.070312 L 167.101562 75.070312 L 167.101562 98.726562 L 52.421875 98.726562 Z M 52.421875 75.070312 " fill-opacity="1" fill-rule="nonzero"/></g><g clip-path="url(#2cb6ef4f1e)"><path fill="#ffffff" d="M 61.429688 66.128906 L 158.046875 66.128906 L 158.046875 91.734375 L 61.429688 91.734375 Z M 61.429688 66.128906 " fill-opacity="1" fill-rule="nonzero"/></g><g clip-path="url(#969459df45)"><path fill="#ffffff" d="M 68.625 60.28125 L 149.417969 60.28125 L 149.417969 81.089844 L 68.625 81.089844 Z M 68.625 60.28125 " fill-opacity="1" fill-rule="nonzero"/></g><g clip-path="url(#a6e0a62610)"><path fill="#ffffff" d="M 73.871094 53.238281 L 143.105469 53.238281 L 143.105469 68.796875 L 73.871094 68.796875 Z M 73.871094 53.238281 " fill-opacity="1" fill-rule="nonzero"/></g><g clip-path="url(#91436da9f8)"><path fill="#ffffff" d="M 82.71875 44.121094 L 136.058594 44.121094 L 136.058594 60.28125 L 82.71875 60.28125 Z M 82.71875 44.121094 " fill-opacity="1" fill-rule="nonzero"/></g><g clip-path="url(#6904874411)"><path fill="#ffffff" d="M 89.761719 35.878906 L 125.867188 35.878906 L 125.867188 49.488281 L 89.761719 49.488281 Z M 89.761719 35.878906 " fill-opacity="1" fill-rule="nonzero"/></g><g clip-path="url(#e726087dbb)"><path fill="#ffffff" d="M 178.222656 141.769531 L 41.355469 141.769531 L 41.355469 112.5 L 178.222656 112.5 Z M 178.222656 141.769531 " fill-opacity="1" fill-rule="nonzero"/></g><g clip-path="url(#f02d5ce0f7)"><path fill="#ffffff" d="M 166.78125 151.382812 L 52.105469 151.382812 L 52.105469 127.726562 L 166.78125 127.726562 Z M 166.78125 151.382812 " fill-opacity="1" fill-rule="nonzero"/></g><g clip-path="url(#b178af9646)"><path fill="#ffffff" d="M 157.773438 160.328125 L 61.152344 160.328125 L 61.152344 134.722656 L 157.773438 134.722656 Z M 157.773438 160.328125 " fill-opacity="1" fill-rule="nonzero"/></g><g clip-path="url(#d73c725254)"><path fill="#ffffff" d="M 150.574219 166.171875 L 69.78125 166.171875 L 69.78125 145.363281 L 150.574219 145.363281 Z M 150.574219 166.171875 " fill-opacity="1" fill-rule="nonzero"/></g><g clip-path="url(#0f8719529a)"><path fill="#ffffff" d="M 145.335938 173.21875 L 76.101562 173.21875 L 76.101562 157.65625 L 145.335938 157.65625 Z M 145.335938 173.21875 " fill-opacity="1" fill-rule="nonzero"/></g><g clip-path="url(#3f587efe76)"><path fill="#ffffff" d="M 136.488281 182.328125 L 83.144531 182.328125 L 83.144531 166.167969 L 136.488281 166.167969 Z M 136.488281 182.328125 " fill-opacity="1" fill-rule="nonzero"/></g><g clip-path="url(#6ba024c2e5)"><path fill="#ffffff" d="M 129.441406 190.582031 L 93.339844 190.582031 L 93.339844 176.96875 L 129.441406 176.96875 Z M 129.441406 190.582031 " fill-opacity="1" fill-rule="nonzero"/></g><g clip-path="url(#09d890a7a4)"><path fill="#00679a" d="M 229.03125 68.753906 L 252.777344 68.753906 L 252.777344 156.480469 L 229.03125 156.480469 Z M 266.019531 68.753906 L 266.019531 156.480469 L 332.011719 156.480469 L 332.011719 138.957031 L 289.757812 138.957031 L 289.757812 121.898438 L 328.855469 121.898438 L 328.855469 104.359375 L 289.757812 104.359375 L 289.757812 86.347656 L 332.011719 86.347656 L 332.011719 68.757812 Z M 346.273438 68.753906 L 346.273438 156.480469 L 412.277344 156.480469 L 412.277344 138.957031 L 370.027344 138.957031 L 370.027344 121.898438 L 409.125 121.898438 L 409.125 104.359375 L 370.027344 104.359375 L 370.027344 86.347656 L 412.28125 86.347656 L 412.28125 68.757812 Z M 426.511719 68.753906 L 426.511719 156.480469 L 492.496094 156.480469 L 492.496094 138.957031 L 450.253906 138.957031 L 450.253906 121.898438 L 489.367188 121.898438 L 489.367188 104.359375 L 450.253906 104.359375 L 450.253906 86.347656 L 492.496094 86.347656 L 492.496094 68.757812 Z M 107.277344 213.429688 C 106.699219 213.261719 106.160156 213.015625 105.660156 212.683594 C 104.40625 211.808594 102.378906 209.554688 101.132812 207.644531 C 99.417969 204.960938 93.382812 197.011719 88.578125 191.015625 C 78.746094 178.699219 70.015625 168.84375 59.9375 158.667969 C 47.859375 146.410156 38.296875 138.058594 27.53125 130.1875 L 16.167969 122.59375 C 11.71875 120.195312 8.273438 116.917969 7.546875 114.410156 C 7.242188 112.867188 7.257812 111.332031 7.601562 109.796875 C 8.253906 107.5625 11.179688 104.980469 15.535156 102.710938 C 21.285156 99.738281 27.789062 94.972656 36.394531 87.441406 C 51.125 74.515625 73.585938 51.359375 91.089844 31.011719 C 96.394531 24.855469 99.171875 21.304688 100.734375 18.679688 C 103.105469 14.660156 105.183594 12.449219 107.121094 11.757812 C 108.152344 11.398438 110.496094 11.398438 111.667969 11.757812 C 112.265625 11.949219 112.824219 12.222656 113.34375 12.574219 C 114.628906 13.449219 116.921875 16.015625 118.265625 18.058594 L 119.941406 20.625 C 120.539062 21.5 128.15625 31.023438 131.152344 34.632812 C 151.472656 59.035156 171.695312 79.667969 188.324219 92.921875 C 195.644531 98.746094 203.332031 103.988281 207.785156 106.148438 C 209.738281 107.09375 211.511719 108.640625 212.011719 109.828125 C 212.511719 110.980469 212.492188 113.234375 211.976562 114.628906 C 211.492188 115.910156 209.683594 117.792969 207.949219 118.796875 C 203.871094 121.175781 190.234375 131.554688 181.691406 138.789062 C 160.875 156.476562 142.550781 175.1875 126.894531 194.824219 C 123.390625 199.234375 117.5 207.191406 116.632812 208.566406 C 115.886719 209.832031 114.023438 211.917969 112.984375 212.644531 C 111.527344 213.648438 109.238281 213.964844 107.285156 213.425781 Z M 112.882812 187.738281 C 120.074219 184.910156 138.957031 169.152344 157.351562 150.65625 C 168.414062 139.511719 176.226562 130.382812 180.628906 123.519531 C 182.175781 121.082031 183.941406 117.488281 184.355469 115.910156 C 184.855469 114.085938 184.769531 111.890625 184.148438 109.960938 C 181.464844 101.738281 171.390625 88.511719 155.378906 72.3125 C 137.761719 54.511719 120.921875 41.195312 112.433594 38.367188 C 109.230469 37.308594 107.679688 37.417969 104.378906 38.980469 C 89.460938 46.046875 49.058594 85.363281 37.113281 104.328125 C 35.625 106.710938 34.226562 109.539062 33.722656 111.191406 C 32.792969 114.242188 33.796875 117.445312 37.410156 123.003906 C 48.859375 140.699219 87.726562 177.332031 104.375 186.1875 C 108.269531 188.253906 110.480469 188.664062 112.875 187.734375 Z M 109.894531 183.910156 C 107.210938 183.351562 99.875 178.550781 92.109375 172.292969 C 68.402344 153.339844 41.769531 125.160156 38.179688 115.34375 C 37.488281 113.421875 37.582031 112.625 38.902344 110.003906 C 43.601562 100.613281 61.082031 80.835938 80.839844 62.613281 C 91.128906 53.230469 101.195312 45.261719 106.242188 42.765625 C 108.457031 41.652344 109.480469 41.613281 111.753906 42.507812 C 125.605469 48.042969 162.234375 82.503906 175.519531 102.519531 C 179.414062 108.398438 180.867188 111.992188 180.363281 114.351562 C 179.109375 120.042969 169.839844 131.875 154.363281 147.476562 C 136.667969 165.332031 117.230469 181.714844 111.003906 183.933594 C 110.78125 184.007812 110.257812 184.007812 109.851562 183.914062 Z M 115.871094 161.683594 C 115.628906 156.414062 115.425781 151.140625 115.257812 145.867188 L 114.757812 131.121094 L 109.390625 131.121094 C 106.429688 131.121094 104.023438 131.175781 104.023438 131.269531 C 103.65625 136.367188 103.28125 141.464844 102.902344 146.558594 L 101.785156 162.195312 L 101.785156 162.695312 L 115.976562 162.695312 Z M 117.902344 128.710938 C 124.433594 128.246094 129.890625 127.164062 134.382812 125.449219 C 136.898438 124.484375 141.574219 122.144531 143.507812 120.855469 C 145.878906 119.308594 147.738281 117.433594 148.554688 115.777344 C 149.113281 114.640625 149.191406 114.300781 149.191406 113.078125 C 149.191406 110.066406 147.605469 108.164062 142.226562 104.820312 C 141.777344 104.542969 141.5 104.238281 141.574219 104.167969 C 141.644531 104.097656 142.46875 103.8125 143.273438 103.589844 C 144.078125 103.363281 144.792969 103.125 144.761719 103.105469 C 144.628906 102.972656 124.808594 97.449219 124.765625 97.519531 C 124.722656 97.59375 125.25 99.324219 125.9375 101.425781 L 127.222656 105.257812 L 128.429688 105.242188 C 129.578125 105.21875 130.726562 105.167969 131.875 105.09375 L 134.109375 104.945312 L 135.375 105.617188 C 137.089844 106.527344 139.582031 108.402344 140.5 109.484375 C 142.714844 112.144531 142.753906 114.320312 140.609375 116.605469 C 138.042969 119.339844 134.144531 120.957031 126.328125 122.558594 C 119.941406 123.921875 113.484375 124.523438 106.957031 124.363281 C 100.023438 124.214844 94.886719 123.304688 89.957031 121.351562 C 83.777344 118.917969 80.71875 116.332031 80.699219 113.542969 C 80.660156 110.398438 85.296875 106.863281 93.25 103.980469 L 95.710938 103.070312 L 93.773438 101.953125 L 88.203125 98.679688 L 84.570312 96.554688 L 82.167969 97.390625 C 75.167969 99.824219 69.859375 102.730469 66.769531 105.800781 C 64.71875 107.863281 64.105469 109.015625 64.03125 111.160156 C 63.953125 112.949219 64.253906 113.878906 65.460938 115.53125 C 67.714844 118.65625 73.320312 121.816406 81.960938 124.921875 C 86.894531 126.707031 96.273438 128.195312 106.359375 128.789062 C 110.207031 128.929688 114.050781 128.910156 117.898438 128.738281 Z M 114.144531 119.652344 L 113.308594 90.917969 C 113.386719 90.839844 115.46875 90.75 117.949219 90.730469 L 122.433594 90.675781 L 115.597656 74.589844 L 108.664062 58.375 C 108.613281 58.320312 106.207031 65.496094 103.296875 74.316406 L 97.929688 90.589844 C 97.851562 90.757812 98.617188 90.8125 101.375 90.8125 C 103.328125 90.8125 104.964844 90.867188 105.007812 90.960938 C 105.082031 91.074219 104.425781 111.828125 104.128906 118.953125 L 104.019531 121.6875 L 114.21875 121.6875 Z M 114.144531 119.652344 " fill-opacity="1" fill-rule="nonzero"/></g></svg>